<svg width="34" height="34" viewBox="0 0 34 34" fill="none" xmlns="http://www.w3.org/2000/svg">
<path d="M25.7373 17.9109C25.7225 15.2879 26.8718 13.3111 29.1928 11.8534C27.8947 9.93042 25.9308 8.87277 23.3419 8.66893C20.8907 8.46894 18.2089 10.1458 17.2269 10.1458C16.1891 10.1458 13.816 8.73816 11.9488 8.73816C8.09528 8.7997 4 11.915 4 18.2532C4 20.1262 4.33104 22.0607 4.99313 24.0529C5.8784 26.6759 9.06981 33.1026 12.3989 32.9988C14.1396 32.9564 15.3708 31.7219 17.6361 31.7219C19.8343 31.7219 20.9725 32.9988 22.9142 32.9988C26.273 32.9488 29.1594 27.1067 30 24.476C25.4956 22.2799 25.7373 18.0455 25.7373 17.9109ZM21.828 6.18057C23.7139 3.86527 23.5428 1.75766 23.487 1C21.8206 1.1 19.8938 2.17303 18.7966 3.49221C17.5877 4.90754 16.8773 6.65747 17.0298 8.63047C18.83 8.77277 20.4741 7.81512 21.828 6.18057Z" fill="black"/>
</svg>
