<svg width="20" height="20" viewBox="0 0 20 20" fill="none" xmlns="http://www.w3.org/2000/svg">
<path d="M2.04506 13.3838C2.27947 13.6181 2.59735 13.7498 2.92881 13.7498C3.26026 13.7498 3.57815 13.6181 3.81256 13.3838L10.0001 7.19627L16.1876 13.3838C16.4233 13.6115 16.7391 13.7375 17.0668 13.7346C17.3945 13.7318 17.7081 13.6003 17.9398 13.3685C18.1716 13.1368 18.303 12.8233 18.3059 12.4955C18.3087 12.1678 18.1827 11.852 17.955 11.6163L10.8838 4.54502C10.6494 4.31068 10.3315 4.17904 10.0001 4.17904C9.6686 4.17904 9.35072 4.31068 9.11631 4.54502L2.04506 11.6163C1.81072 11.8507 1.67908 12.1686 1.67908 12.5C1.67908 12.8315 1.81072 13.1494 2.04506 13.3838Z" fill="black"/>
</svg>
