<svg width="30" height="30" viewBox="0 0 30 30" fill="none" xmlns="http://www.w3.org/2000/svg">
<path d="M23.5 14.0015H9.66333L13.8983 8.91479C14.0964 8.67654 14.1916 8.36938 14.1632 8.06088C14.1347 7.75239 13.9849 7.46782 13.7467 7.26979C13.5084 7.07177 13.2013 6.97649 12.8928 7.00494C12.5843 7.03338 12.2997 7.18321 12.1017 7.42146L6.26833 14.4215C6.22909 14.4771 6.19399 14.5356 6.16333 14.5965C6.16333 14.6548 6.16333 14.6898 6.08167 14.7481C6.02879 14.8819 6.0011 15.0243 6 15.1681C6.0011 15.312 6.02879 15.4544 6.08167 15.5881C6.08167 15.6465 6.08167 15.6815 6.16333 15.7398C6.19399 15.8006 6.22909 15.8591 6.26833 15.9148L12.1017 22.9148C12.2114 23.0465 12.3487 23.1524 12.504 23.225C12.6593 23.2976 12.8286 23.3351 13 23.3348C13.2726 23.3353 13.5368 23.2404 13.7467 23.0665C13.8648 22.9685 13.9625 22.8482 14.034 22.7125C14.1056 22.5768 14.1497 22.4282 14.1638 22.2754C14.1779 22.1226 14.1617 21.9685 14.1161 21.822C14.0706 21.6755 13.9966 21.5393 13.8983 21.4215L9.66333 16.3348H23.5C23.8094 16.3348 24.1062 16.2119 24.325 15.9931C24.5437 15.7743 24.6667 15.4775 24.6667 15.1681C24.6667 14.8587 24.5437 14.562 24.325 14.3432C24.1062 14.1244 23.8094 14.0015 23.5 14.0015Z" fill="black"/>
</svg>
