<svg width="24" height="24" viewBox="0 0 24 24" fill="none" xmlns="http://www.w3.org/2000/svg">
<path fill-rule="evenodd" clip-rule="evenodd" d="M6.54156 20.7051C7.04206 20.7051 7.44887 21.113 7.44887 21.6149C7.44887 22.1167 7.04206 22.5234 6.54156 22.5234C6.04106 22.5234 5.63544 22.1167 5.63544 21.6149C5.63544 21.113 6.04106 20.7051 6.54156 20.7051Z" stroke="#828282" stroke-width="1.5" stroke-linecap="round" stroke-linejoin="round"/>
<path fill-rule="evenodd" clip-rule="evenodd" d="M19.8872 20.7051C20.3877 20.7051 20.7945 21.113 20.7945 21.6149C20.7945 22.1167 20.3877 22.5234 19.8872 22.5234C19.3867 22.5234 18.9798 22.1167 18.9798 21.6149C18.9798 21.113 19.3867 20.7051 19.8872 20.7051Z" stroke="#828282" stroke-width="1.5" stroke-linecap="round" stroke-linejoin="round"/>
<path d="M1 1L3.46692 1.42811L4.60906 15.0716C4.70157 16.1835 5.62785 17.0373 6.74034 17.0373H19.6822C20.7449 17.0373 21.6463 16.2549 21.7992 15.1989L22.9248 7.40019C23.0635 6.43814 22.3199 5.57717 21.3509 5.57717H3.86305" stroke="#828282" stroke-width="1.5" stroke-linecap="round" stroke-linejoin="round"/>
<path d="M14.4916 9.9724H17.7804" stroke="#828282" stroke-width="1.5" stroke-linecap="round" stroke-linejoin="round"/>
</svg>
