<svg width="30" height="30" viewBox="0 0 30 30" fill="none" xmlns="http://www.w3.org/2000/svg">
<path d="M13.1031 22.3761H4.00073" stroke="#333333" stroke-width="1.5" stroke-linecap="round" stroke-linejoin="round"/>
<path fill-rule="evenodd" clip-rule="evenodd" d="M26.9448 22.3762C26.9448 24.3776 25.3224 26 23.3211 26C21.3197 26 19.6973 24.3776 19.6973 22.3762C19.6973 20.3734 21.3197 18.7524 23.3211 18.7524C25.3224 18.7524 26.9448 20.3734 26.9448 22.3762Z" stroke="#333333" stroke-width="1.5" stroke-linecap="round" stroke-linejoin="round"/>
<path d="M17.8411 7.62377H26.9449" stroke="#333333" stroke-width="1.5" stroke-linecap="round" stroke-linejoin="round"/>
<path fill-rule="evenodd" clip-rule="evenodd" d="M4 7.62379C4 9.62664 5.62241 11.2476 7.62379 11.2476C9.62516 11.2476 11.2476 9.62664 11.2476 7.62379C11.2476 5.62241 9.62516 4 7.62379 4C5.62241 4 4 5.62241 4 7.62379Z" stroke="#333333" stroke-width="1.5" stroke-linecap="round" stroke-linejoin="round"/>
</svg>
