<svg width="23" height="24" viewBox="0 0 23 24" fill="none" xmlns="http://www.w3.org/2000/svg">
<path d="M8.33841 21.6485V18.2751C8.33839 17.4171 9.03938 16.7199 9.90789 16.7142H13.0893C13.9619 16.7142 14.6694 17.413 14.6694 18.2751V21.659C14.6692 22.3875 15.2577 22.9829 15.995 23H18.1159C20.2302 23 21.9442 21.3067 21.9442 19.218V9.62162C21.9329 8.79991 21.5423 8.02828 20.8837 7.52634L13.6301 1.75383C12.3594 0.748723 10.553 0.748723 9.28222 1.75383L2.06046 7.53681C1.39933 8.03672 1.00814 8.80963 1 9.6321V19.218C1 21.3067 2.71398 23 4.82827 23H6.9492C7.70472 23 8.3172 22.3949 8.3172 21.6485" stroke="#828282" stroke-width="1.5" stroke-linecap="round" stroke-linejoin="round"/>
</svg>
