<svg width="34" height="34" viewBox="0 0 34 34" fill="none" xmlns="http://www.w3.org/2000/svg">
<g clip-path="url(#clip0_1051_8273)">
<path d="M5.19917 8.69833C5.19917 8.69833 2.57833 11.2058 2.43667 13.855V14.3508C2.55 16.49 4.165 17.7508 4.165 17.7508C6.7575 20.2867 13.0333 23.4742 14.5067 24.1967C14.5067 24.1967 14.5917 24.2392 14.6483 24.1825L14.6767 24.1258V24.0692C10.6533 15.3 5.19917 8.69833 5.19917 8.69833ZM13.6708 26.35C13.6425 26.2367 13.5292 26.2367 13.5292 26.2367L3.07417 26.605C4.2075 28.6308 6.12 30.1892 8.1175 29.7217C9.4775 29.3675 12.5942 27.2 13.6142 26.4633C13.6992 26.3925 13.6708 26.3358 13.6708 26.3358V26.35ZM13.7842 25.245C9.19417 22.1425 0.2975 17.3967 0.2975 17.3967C0.085 18.0483 0.0141667 18.6717 0 19.2383V19.3375C0 20.8533 0.566667 21.9158 0.566667 21.9158C1.7 24.31 3.88167 25.0325 3.88167 25.0325C4.87333 25.4575 5.865 25.4717 5.865 25.4717C6.035 25.5 12.0983 25.4717 13.7133 25.4717C13.7842 25.4717 13.8267 25.4008 13.8267 25.4008V25.3158C13.8267 25.2733 13.7842 25.245 13.7842 25.245ZM12.835 4.51916C11.8306 4.77562 10.9349 5.34748 10.2795 6.15072C9.62421 6.95395 9.24378 7.9462 9.19417 8.98166V9.5625C9.23667 10.4125 9.42083 11.05 9.42083 11.05C10.3558 15.1583 14.8892 21.8875 15.8667 23.3042C15.9375 23.375 16.0083 23.3467 16.0083 23.3467C16.0355 23.3349 16.0584 23.3149 16.0736 23.2895C16.0889 23.2641 16.0958 23.2345 16.0933 23.205C17.595 8.18833 14.5208 4.19333 14.5208 4.19333C14.0675 4.22166 12.835 4.51916 12.835 4.51916ZM24.5919 7.735C24.5919 7.735 23.8978 5.185 21.1353 4.505C21.1353 4.505 20.3278 4.30666 19.4778 4.19333C19.4778 4.19333 16.3894 8.17416 17.8911 23.2192C17.9053 23.3183 17.9761 23.3325 17.9761 23.3325C18.0753 23.375 18.1178 23.29 18.1178 23.29C19.1378 21.8308 23.6428 15.13 24.5636 11.05C24.5636 11.05 25.0736 9.06666 24.5919 7.735ZM20.4553 26.2508C20.4553 26.2508 20.3561 26.2508 20.3278 26.3217C20.3278 26.3217 20.3136 26.4208 20.3703 26.4633C21.3619 27.1858 24.4078 29.2967 25.8669 29.7217C25.8669 29.7217 26.0936 29.7925 26.4761 29.8067H26.6744C27.6519 29.7783 29.3661 29.2825 30.9244 26.605L20.4411 26.2508H20.4553ZM31.5478 14.3367C31.7461 11.4183 28.7994 8.7125 28.7994 8.69833C28.7994 8.69833 23.3453 15.3 19.3503 23.9983C19.3503 23.9983 19.3078 24.1117 19.3786 24.1825L19.4353 24.1967H19.5203C21.0219 23.4458 27.2553 20.2725 29.8336 17.765C29.8336 17.765 31.4628 16.4475 31.5478 14.3367ZM33.7011 17.3683C33.7011 17.3683 24.8044 22.1425 20.2144 25.2308C20.2144 25.2308 20.1436 25.2875 20.1719 25.3867C20.1719 25.3867 20.2144 25.4717 20.2711 25.4717C21.9144 25.4717 28.1478 25.4717 28.3036 25.4433C28.3036 25.4433 29.1111 25.415 30.1028 25.0325C30.1028 25.0325 32.3128 24.3242 33.4603 21.8167C33.4603 21.8167 34.4944 19.7625 33.7011 17.3683Z" fill="black"/>
</g>
<defs>
<clipPath id="clip0_1051_8273">
<rect width="34" height="34" fill="white"/>
</clipPath>
</defs>
</svg>
