<svg width="34" height="34" viewBox="0 0 34 34" fill="none" xmlns="http://www.w3.org/2000/svg">
<g clip-path="url(#clip0_718_2646)">
<path d="M28.0734 14.5648L28.1403 18.3781H28.1074L27.0002 14.5648H25.1855V19.3683H26.3861L26.3192 15.4222H26.3521L27.5368 19.3683H29.274V14.5648H28.0734ZM5.19669 14.5648L4.28931 19.4183H5.60044L6.26981 15.0025H6.29744L6.95087 19.4183H8.25138L7.35462 14.5648H5.19669ZM12.5343 14.5648L11.9361 18.2665H11.9032L11.2997 14.5648H9.31813L9.22356 19.4183H10.4412L10.4741 15.0524H10.4847L11.2986 19.4183H12.5322L13.3461 15.0524H13.379L13.4119 19.4183H14.6296L14.5138 14.5648H12.5343ZM2.24081 18.0402C2.29075 18.1507 2.27375 18.3164 2.25781 18.394C2.22487 18.5598 2.108 18.7202 1.78712 18.7202C1.47688 18.7202 1.3005 18.5428 1.3005 18.2835V17.8128H0V18.1836C0 19.2738 0.857438 19.5946 1.77119 19.5946C2.64563 19.5946 3.37556 19.2908 3.49244 18.4939C3.55938 18.0731 3.50944 17.7969 3.49244 17.697C3.26506 16.6728 1.41206 16.3859 1.28456 15.8153C1.26742 15.7294 1.26742 15.6409 1.28456 15.555C1.3175 15.3946 1.428 15.2288 1.72125 15.2288C2.0145 15.2288 2.17494 15.4063 2.17494 15.6655V15.9588H3.39256V15.6209C3.39256 14.5637 2.43525 14.4033 1.75419 14.4033C0.890375 14.4033 0.177437 14.6912 0.0499375 15.4711C0.00599337 15.6873 0.0118066 15.9108 0.0669375 16.1245C0.260312 17.1264 1.99856 17.4197 2.24187 18.0391L2.24081 18.0402ZM18.0402 18.0402C18.0901 18.1507 18.0731 18.3005 18.0572 18.394C18.0243 18.5598 17.9074 18.7202 17.5865 18.7202C17.2763 18.7202 17.0999 18.5428 17.0999 18.2835V17.8128H15.7994V18.1836C15.7994 19.2568 16.6409 19.584 17.5536 19.584C18.428 19.584 19.142 19.2908 19.2578 18.4769C19.3248 18.0561 19.2748 17.7958 19.2578 17.68C19.0644 16.6728 17.2274 16.3689 17.0999 15.8153C17.0827 15.7294 17.0827 15.6409 17.0999 15.555C17.1275 15.3946 17.2433 15.2288 17.5366 15.2288C17.8128 15.2288 17.9902 15.4063 17.9902 15.6655V15.9588H19.1909V15.6209C19.1909 14.5637 18.2506 14.4033 17.5695 14.4033C16.7057 14.4033 16.0087 14.6742 15.8812 15.4711C15.8482 15.6814 15.8482 15.8801 15.8918 16.1245C16.0916 17.1264 17.7958 17.4027 18.0391 18.0391L18.0402 18.0402ZM22.1297 18.6883C22.4729 18.6883 22.5664 18.4609 22.6004 18.3345C22.6174 18.2846 22.6174 18.2017 22.6174 18.1518V14.5658H23.851V18.0572C23.851 18.1518 23.851 18.3334 23.834 18.3781C23.7564 19.2908 23.0371 19.584 22.1457 19.584C21.2542 19.584 20.5413 19.2908 20.4574 18.3781C20.4574 18.3334 20.4404 18.1507 20.4404 18.0572V14.5658H21.6739V18.1518C21.6739 18.2187 21.6739 18.2846 21.6909 18.3345C21.6909 18.462 21.7908 18.6883 22.1276 18.6883H22.1297ZM32.2628 18.6384C32.623 18.6384 32.7335 18.411 32.7664 18.2846C32.7834 18.2346 32.7834 18.1518 32.7834 18.1071V17.4048H32.2798V16.6908H34.0011V17.9913C34.0011 18.0912 34.0011 18.1518 33.9841 18.3175C33.9012 19.2089 33.1372 19.5181 32.2798 19.5181C31.416 19.5181 30.6584 19.2079 30.5756 18.3175C30.5586 18.1518 30.5586 18.0901 30.5586 17.9913V15.9439C30.5586 15.8663 30.5756 15.7006 30.5756 15.623C30.6861 14.7103 31.4171 14.4171 32.2798 14.4171C33.1372 14.4171 33.8842 14.7103 33.9841 15.623C34.0011 15.7664 34.0011 15.9439 34.0011 15.9439V16.1096H32.7834V15.8334C32.7834 15.8334 32.7834 15.7176 32.7664 15.6506C32.7494 15.5401 32.6506 15.2968 32.2798 15.2968C31.9196 15.2968 31.8261 15.5242 31.7932 15.6506C31.7762 15.7176 31.7762 15.8004 31.7762 15.8833V18.1082C31.7762 18.1688 31.7762 18.2357 31.7932 18.2856C31.7932 18.4131 31.9207 18.6394 32.2639 18.6394L32.2628 18.6384Z" fill="black"/>
</g>
<defs>
<clipPath id="clip0_718_2646">
<rect width="34" height="34" fill="white"/>
</clipPath>
</defs>
</svg>
