<svg width="20" height="20" viewBox="0 0 20 20" fill="none" xmlns="http://www.w3.org/2000/svg">
<path d="M17.4114 16.0844L14.5991 13.3134C16.7949 10.5228 16.5639 6.54854 14.0399 4.04466C12.7109 2.72632 10.9378 2 9.05056 2C7.1624 2 5.39013 2.72636 4.06121 4.04466C2.7322 5.36299 2 7.12186 2 8.99395C2 10.867 2.73224 12.625 4.06121 13.9432C5.39021 15.2616 7.16332 15.9879 9.05056 15.9879C10.6114 15.9879 12.1527 15.4721 13.3853 14.4971L16.1788 17.307C16.3519 17.4787 16.5641 17.5556 16.7951 17.5556C17.0261 17.5556 17.2384 17.46 17.4114 17.307C17.7584 16.9822 17.7584 16.4283 17.4114 16.0842L17.4114 16.0844ZM14.3681 8.99395C14.3681 10.4078 13.8097 11.727 12.8073 12.7205C11.8056 13.7141 10.4571 14.2688 9.05051 14.2688C7.64394 14.2688 6.29536 13.7149 5.29375 12.7205C4.2921 11.7269 3.73294 10.3892 3.73294 8.99395C3.73294 7.58006 4.29133 6.26093 5.29375 5.26736C6.2954 4.27376 7.64394 3.71909 9.05051 3.71909C10.4758 3.71909 11.8057 4.27299 12.8073 5.26736C13.8089 6.26171 14.3681 7.58014 14.3681 8.99395Z" fill="#1D1F22"/>
</svg>
