<svg width="22" height="22" viewBox="0 0 22 22" fill="none" xmlns="http://www.w3.org/2000/svg">
<path fill-rule="evenodd" clip-rule="evenodd" d="M20.8161 0.519289C20.9788 0.55494 21.128 0.636318 21.2461 0.753854C21.3607 0.873825 21.4388 1.02389 21.4713 1.18656C21.5039 1.34923 21.4895 1.5178 21.4299 1.6726L14.4299 20.9226C14.3698 21.0889 14.2607 21.2332 14.117 21.3363C13.9733 21.4394 13.8017 21.4965 13.6249 21.5001C13.4541 21.4951 13.2886 21.4403 13.1487 21.3423C13.0087 21.2443 12.9005 21.1076 12.8374 20.9489L9.47738 12.5489L1.07738 9.18885C0.911363 9.12588 0.768434 9.0139 0.667573 8.86777C0.566713 8.72164 0.512695 8.54828 0.512695 8.37073C0.512695 8.19317 0.566713 8.01982 0.667573 7.87369C0.768434 7.72756 0.911363 7.61557 1.07738 7.5526L20.3274 0.552604C20.4838 0.495196 20.6533 0.483638 20.8161 0.519289ZM11.1837 12.05L13.6249 18.175L19.1637 2.83627L3.82492 8.37502L9.91492 10.8513L14.1412 6.62502L15.3749 7.85877L11.1837 12.05Z" fill="black"/>
</svg>
