<svg width="34" height="34" viewBox="0 0 34 34" fill="none" xmlns="http://www.w3.org/2000/svg">
<g clip-path="url(#clip0_718_2616)">
<path d="M28.2785 28.3337C28.1584 28.3329 28.0435 28.2848 27.9586 28.1999C27.8737 28.115 27.8256 28.0001 27.8248 27.88V6.12106C27.8256 6.001 27.8737 5.88608 27.9586 5.80118C28.0435 5.71628 28.1584 5.66821 28.2785 5.66738H33.5357C33.5962 5.66611 33.6563 5.67689 33.7126 5.69909C33.7689 5.7213 33.8201 5.75448 33.8635 5.79671C33.9068 5.83893 33.9413 5.88936 33.9649 5.94505C33.9885 6.00074 34.0008 6.06057 34.0011 6.12106V27.88C34.0011 28.135 33.7907 28.339 33.5357 28.3337H28.2785ZM19.4629 28.3337C19.4629 28.3337 19.0422 28.2062 19.0422 27.88V14.5212C19.0551 14.1047 18.9836 13.6898 18.8322 13.3016C18.6807 12.9134 18.4523 12.5598 18.1608 12.2621C17.8692 11.9643 17.5204 11.7286 17.1355 11.5691C16.7505 11.4095 16.3372 11.3295 15.9205 11.3337H6.0924C5.5229 11.3337 5.66634 11.7598 5.66634 11.7598V27.88C5.66634 28.2614 5.24027 28.3337 5.24027 28.3337H0.464337C0.403858 28.335 0.34373 28.3242 0.28746 28.302C0.23119 28.2798 0.179902 28.2466 0.136587 28.2044C0.0932713 28.1621 0.0587947 28.1117 0.0351665 28.056C0.0115382 28.0003 -0.000768906 27.9405 -0.0010376 27.88V6.12106C-0.0010376 5.86606 0.209337 5.66206 0.464337 5.66738H18.6873C20.2853 5.6794 21.814 6.32142 22.9413 7.45398C24.0687 8.58654 24.7037 10.1182 24.7085 11.7162L24.7191 27.8811C24.7192 27.9407 24.7076 27.9997 24.6848 28.0548C24.6621 28.11 24.6287 28.16 24.5865 28.2022C24.5444 28.2443 24.4943 28.2778 24.4392 28.3005C24.3841 28.3233 24.325 28.3349 24.2654 28.3348L19.4629 28.3337ZM9.69003 28.3337C9.57703 28.3337 9.46866 28.2888 9.38875 28.2089C9.30885 28.129 9.26396 28.0206 9.26396 27.9076V15.1576C9.26396 14.9249 9.45734 14.7316 9.69003 14.7316H15.0302C15.2628 14.7422 15.4392 14.9313 15.4392 15.1576V27.9076C15.4398 27.9633 15.4293 28.0185 15.4084 28.0701C15.3876 28.1217 15.3567 28.1687 15.3176 28.2083C15.2784 28.2479 15.2319 28.2793 15.1805 28.3009C15.1292 28.3224 15.0741 28.3336 15.0185 28.3337H9.69003Z" fill="black"/>
</g>
<defs>
<clipPath id="clip0_718_2616">
<rect width="34" height="34" fill="white"/>
</clipPath>
</defs>
</svg>
